name Run_300 01_newCOP3_v24.mot
datacolumns 19
datarows 124
range 0.008333 0.136458
DataType=double
version=3
OpenSimVersion=4.3-2021-08-27-4bc7ad9
endheader
time	R_ground_force_vx	R_ground_force_vy	R_ground_force_vz	R_ground_force_px	R_ground_force_py	R_ground_force_pz	L_ground_force_vx	L_ground_force_vy	L_ground_force_vz	L_ground_force_px	L_ground_force_py	L_ground_force_pz	R_ground_torque_x	R_ground_torque_y	R_ground_torque_z	L_ground_torque_x	L_ground_torque_y	L_ground_torque_z
0.008333	25.506655	24.984365	-9.340230999999999	0.670477	0	-0.262318	0	0	0	0	0	0	-0	6.144662	-0	0	0	0
0.009375	24.062176	23.89045	-8.908134	0.677928	0	-0.258022	0	0	0	0	0	0	-0	5.566258	-0	0	0	0
0.010417	22.595827	22.782272	-8.461093	0.6862780000000001	0	-0.253185	0	0	0	0	0	0	-0	4.982114	-0	0	0	0
0.011458	21.124117	21.673193	-8.001697	0.695594	0	-0.247756	0	0	0	0	0	0	-0	4.395547	-0	0	0	0
0.0125	19.662027	20.575373	-7.53249	0.70594	0	-0.241684	0	0	0	0	0	0	-0	3.809945	-0	0	0	0
0.013542	18.222996	19.49971	-7.056014	0.7173659999999999	0	-0.234926	0	0	0	0	0	0	-0	3.228723	-0	0	0	0
0.014583	16.81885	18.455732	-6.574816	0.7299020000000001	0	-0.227446	0	0	0	0	0	0	-0	2.655293	-0	0	0	0
0.015625	15.459704	17.451487	-6.091469	0.743551	0	-0.219225	0	0	0	0	0	0	-0	2.093022	-0	0	0	0
0.016667	14.153915	16.493448	-5.60856	0.758277	0	-0.210265	0	0	0	0	0	0	-0	1.545194	-0	0	0	0
0.017708	12.908072	15.586488	-5.128685	0.773998	0	-0.200594	0	0	0	0	0	0	-0	1.014977	-0	0	0	0
0.01875	11.727058	14.733867	-4.654436	0	0	0	0	0	0	0	0	0	0	0	0	0	0	0
0.019792	10.614164	13.937305	-4.188374	0	0	0	0	0	0	0	0	0	0	0	0	0	0	0
0.020833	9.571248000000001	13.197084	-3.73301	0	0	0	0	0	0	0	0	0	0	0	0	0	0	0
0.021875	8.598924999999999	12.512186	-3.290773	0	0	0	0	0	0	0	0	0	0	0	0	0	0	0
0.022917	7.696777	11.880475	-2.86398	0	0	0	0	0	0	0	0	0	0	0	0	0	0	0
0.023958	6.863566	11.298892	-2.454806	0	0	0	0	0	0	0	0	0	0	0	0	0	0	0
0.025	6.097425	10.76367	-2.065248	0	0	0	0	0	0	0	0	0	0	0	0	0	0	0
0.026042	5.396034	10.270551	-1.6971	0	0	0	0	0	0	0	0	0	0	0	0	0	0	0
0.027083	0	0	0	0	0	0	0	0	0	0	0	0	0	0	0	0	0	0
0.028125	0	0	0	0	0	0	0	0	0	0	0	0	0	0	0	0	0	0
0.029167	0	0	0	0	0	0	0	0	0	0	0	0	0	0	0	0	0	0
0.030208	0	0	0	0	0	0	0	0	0	0	0	0	0	0	0	0	0	0
0.03125	0	0	0	0	0	0	0	0	0	0	0	0	0	0	0	0	0	0
0.032292	0	0	0	0	0	0	0	0	0	0	0	0	0	0	0	0	0	0
0.033333	0	0	0	0	0	0	0	0	0	0	0	0	0	0	0	0	0	0
0.034375	0	0	0	0	0	0	0	0	0	0	0	0	0	0	0	0	0	0
0.035417	0	0	0	0	0	0	0	0	0	0	0	0	0	0	0	0	0	0
0.036458	0	0	0	0	0	0	0	0	0	0	0	0	0	0	0	0	0	0
0.0375	0	0	0	0	0	0	0	0	0	0	0	0	0	0	0	0	0	0
0.038542	0	0	0	0	0	0	0	0	0	0	0	0	0	0	0	0	0	0
0.039583	0	0	0	0	0	0	0	0	0	0	0	0	0	0	0	0	0	0
0.040625	0	0	0	0	0	0	0	0	0	0	0	0	0	0	0	0	0	0
0.041667	0	0	0	0	0	0	0	0	0	0	0	0	0	0	0	0	0	0
0.042708	0	0	0	0	0	0	0	0	0	0	0	0	0	0	0	0	0	0
0.04375	0	0	0	0	0	0	0	0	0	0	0	0	0	0	0	0	0	0
0.044792	0	0	0	0	0	0	0	0	0	0	0	0	0	0	0	0	0	0
0.045833	0	0	0	0	0	0	0	0	0	0	0	0	0	0	0	0	0	0
0.046875	0	0	0	0	0	0	0	0	0	0	0	0	0	0	0	0	0	0
0.047917	0	0	0	0	0	0	0	0	0	0	0	0	0	0	0	0	0	0
0.048958	0	0	0	0	0	0	0	0	0	0	0	0	0	0	0	0	0	0
0.05	0	0	0	0	0	0	0	0	0	0	0	0	0	0	0	0	0	0
0.051042	0	0	0	0	0	0	0	0	0	0	0	0	0	0	0	0	0	0
0.052083	0	0	0	0	0	0	0	0	0	0	0	0	0	0	0	0	0	0
0.053125	0	0	0	0	0	0	0	0	0	0	0	0	0	0	0	0	0	0
0.054167	0	0	0	0	0	0	0	0	0	0	0	0	0	0	0	0	0	0
0.055208	0	0	0	0	0	0	0	0	0	0	0	0	0	0	0	0	0	0
0.05625	0	0	0	0	0	0	0	0	0	0	0	0	0	0	0	0	0	0
0.057292	0	0	0	0	0	0	0	0	0	0	0	0	0	0	0	0	0	0
0.058333	0	0	0	0	0	0	0	0	0	0	0	0	0	0	0	0	0	0
0.059375	0	0	0	0	0	0	0	0	0	0	0	0	0	0	0	0	0	0
0.060417	0	0	0	0	0	0	0	0	0	0	0	0	0	0	0	0	0	0
0.061458	0	0	0	0	0	0	0	0	0	0	0	0	0	0	0	0	0	0
0.0625	0	0	0	0	0	0	0	0	0	0	0	0	0	0	0	0	0	0
0.063542	0	0	0	0	0	0	0	0	0	0	0	0	0	0	0	0	0	0
0.064583	0	0	0	0	0	0	0	0	0	0	0	0	0	0	0	0	0	0
0.065625	0	0	0	0	0	0	0	0	0	0	0	0	0	0	0	0	0	0
0.066667	0	0	0	0	0	0	0	0	0	0	0	0	0	0	0	0	0	0
0.067708	0	0	0	0	0	0	0	0	0	0	0	0	0	0	0	0	0	0
0.06875000000000001	0	0	0	0	0	0	0	0	0	0	0	0	0	0	0	0	0	0
0.06979200000000001	0	0	0	0	0	0	0	0	0	0	0	0	0	0	0	0	0	0
0.07083299999999999	0	0	0	0	0	0	0	0	0	0	0	0	0	0	0	0	0	0
0.07187499999999999	0	0	0	0	0	0	0	0	0	0	0	0	0	0	0	0	0	0
0.072917	0	0	0	0	0	0	0	0	0	0	0	0	0	0	0	0	0	0
0.073958	0	0	0	0	0	0	0	0	0	0	0	0	0	0	0	0	0	0
0.075	0	0	0	0	0	0	0	0	0	0	0	0	0	0	0	0	0	0
0.076042	0	0	0	0	0	0	0	0	0	0	0	0	0	0	0	0	0	0
0.077083	0	0	0	0	0	0	0	0	0	0	0	0	0	0	0	0	0	0
0.078125	0	0	0	0	0	0	0	0	0	0	0	0	0	0	0	0	0	0
0.079167	0	0	0	0	0	0	0	0	0	0	0	0	0	0	0	0	0	0
0.080208	0	0	0	0	0	0	0	0	0	0	0	0	0	0	0	0	0	0
0.08125	0	0	0	0	0	0	0	0	0	0	0	0	0	0	0	0	0	0
0.082292	0	0	0	0	0	0	0	0	0	0	0	0	0	0	0	0	0	0
0.083333	0	0	0	0	0	0	0	0	0	0	0	0	0	0	0	0	0	0
0.08437500000000001	0	0	0	0	0	0	0	0	0	0	0	0	0	0	0	0	0	0
0.08541700000000001	0	0	0	0	0	0	0	0	0	0	0	0	0	0	0	0	0	0
0.08645799999999999	0	0	0	0	0	0	0	0	0	0	0	0	0	0	0	0	0	0
0.08749999999999999	0	0	0	0	0	0	0	0	0	0	0	0	0	0	0	0	0	0
0.088542	0	0	0	0	0	0	0	0	0	0	0	0	0	0	0	0	0	0
0.089583	0	0	0	0	0	0	0	0	0	0	0	0	0	0	0	0	0	0
0.090625	0	0	0	0	0	0	0	0	0	0	0	0	0	0	0	0	0	0
0.091667	0	0	0	0	0	0	0	0	0	0	0	0	0	0	0	0	0	0
0.092708	0	0	0	0	0	0	0	0	0	0	0	0	0	0	0	0	0	0
0.09375	0	0	0	0	0	0	0	0	0	0	0	0	0	0	0	0	0	0
0.094792	0	0	0	0	0	0	0	0	0	0	0	0	0	0	0	0	0	0
0.095833	0	0	0	0	0	0	0	0	0	0	0	0	0	0	0	0	0	0
0.096875	0	0	0	0	0	0	0	0	0	0	0	0	0	0	0	0	0	0
0.097917	0	0	0	0	0	0	0	0	0	0	0	0	0	0	0	0	0	0
0.098958	0	0	0	0	0	0	0	0	0	0	0	0	0	0	0	0	0	0
0.1	0	0	0	0	0	0	0	0	0	0	0	0	0	0	0	0	0	0
0.101042	0	0	0	0	0	0	-0.8030080000000001	10.382574	-1.599352	0	0	0	0	0	0	0	0	0
0.102083	0	0	0	0	0	0	-0.968127	11.739784	-1.818952	0	0	0	0	0	0	0	0	0
0.103125	0	0	0	0	0	0	-1.150655	13.301915	-2.051084	0	0	0	0	0	0	0	0	0
0.104167	0	0	0	0	0	0	-1.350943	15.094449	-2.296279	1.031222	0	-0.243417	0	0	0	0	-0.987361	0
0.105208	0	0	0	0	0	0	-1.568936	17.145411	-2.554912	1.030916	0	-0.250291	0	0	0	0	-0.86067	0
0.10625	0	0	0	0	0	0	-1.804103	19.485426	-2.827174	1.0306	0	-0.256495	0	0	0	0	-0.725084	0
0.107292	0	0	0	0	0	0	-2.055367	22.147732	-3.113047	1.030286	0	-0.262093	0	0	0	0	-0.581121	0
0.108333	0	0	0	0	0	0	-2.321049	25.168125	-3.412285	1.029979	0	-0.267138	0	0	0	0	-0.429588	0
0.109375	0	0	0	0	0	0	-2.598832	28.584883	-3.7244	1.029675	0	-0.27168	0	0	0	0	-0.27161	0
0.110417	0	0	0	0	0	0	-2.885743	32.438602	-4.048649	1.029369	0	-0.27576	0	0	0	0	-0.108636	0
0.111458	0	0	0	0	0	0	-3.17816	36.772007	-4.384034	1.02905	0	-0.279417	0	0	0	-0	0.057548	-0
0.1125	0	0	0	0	0	0	-3.471867	41.629711	-4.729301	1.028708	0	-0.282687	0	0	0	-0	0.224827	-0
0.113542	0	0	0	0	0	0	-3.762144	47.057926	-5.082953	1.028333	0	-0.285603	0	0	0	-0	0.390769	-0
0.114583	0	0	0	0	0	0	-4.043899	53.10416	-5.443265	1.027914	0	-0.288194	0	0	0	-0	0.552642	-0
0.115625	0	0	0	0	0	0	-4.31186	59.816868	-5.808303	1.027441	0	-0.290488	0	0	0	-0	0.70745	-0
0.116667	0	0	0	0	0	0	-4.560808	67.24511	-6.175955	1.026907	0	-0.292512	0	0	0	-0	0.851967	-0
0.117708	0	0	0	0	0	0	-4.785849	75.43815600000001	-6.543963	1.026306	0	-0.294289	0	0	0	-0	0.982787	-0
0.11875	0	0	0	0	0	0	-4.982726	84.44510699999999	-6.909964	1.025634	0	-0.295843	0	0	0	-0	1.096382	-0
0.119792	0	0	0	0	0	0	-5.148151	94.314491	-7.271527	1.024889	0	-0.297193	0	0	0	-0	1.189161	-0
0.120833	0	0	0	0	0	0	-5.280138	105.093773	-7.626206	1.024071	0	-0.29836	0	0	0	-0	1.257542	-0
0.121875	0	0	0	0	0	0	-5.378325	116.828926	-7.971585	1.023183	0	-0.29936	0	0	0	-0	1.298028	-0
0.122917	0	0	0	0	0	0	-5.444262	129.563828	-8.305327999999999	1.022229	0	-0.300209	0	0	0	-0	1.307279	-0
0.123958	0	0	0	0	0	0	-5.481643	143.339661	-8.625233	1.021214	0	-0.300922	0	0	0	-0	1.282199	-0
0.125	0	0	0	0	0	0	-5.496481	158.19426	-8.92928	1.020147	0	-0.301512	0	0	0	-0	1.220013	-0
0.126042	0	0	0	0	0	0	-5.497188	174.16124	-9.215685000000001	1.019035	0	-0.301991	0	0	0	-0	1.118347	-0
0.127083	0	0	0	0	0	0	-5.494569	191.269196	-9.482944	1.017889	0	-0.30237	0	0	0	-0	0.975308	-0
0.128125	0	0	0	0	0	0	-5.501729	209.54068	-9.729879	1.016718	0	-0.302658	0	0	0	-0	0.789557	-0
0.129167	0	0	0	0	0	0	-5.533881	228.99118	-9.955685000000001	1.015533	0	-0.302864	0	0	0	-0	0.560373	-0
0.130208	0	0	0	0	0	0	-5.608072	249.628036	-10.15996	1.014342	0	-0.302997	0	0	0	-0	0.287716	-0
0.13125	0	0	0	0	0	0	-5.742836	271.44928	-10.342743	1.013156	0	-0.303063	0	0	0	0	-0.027722	0
0.132292	0	0	0	0	0	0	-5.957785	294.442535	-10.504539	1.011982	0	-0.30307	0	0	0	0	-0.384481	0
0.133333	0	0	0	0	0	0	-6.273156	318.583923	-10.646338	1.010828	0	-0.303024	0	0	0	0	-0.780303	0
0.134375	0	0	0	0	0	0	-6.709333	343.837097	-10.769638	1.009701	0	-0.302931	0	0	0	0	-1.212115	0
0.135417	0	0	0	0	0	0	-7.286361	370.152283	-10.876442	1.008606	0	-0.302795	0	0	0	0	-1.676034	0
0.136458	0	0	0	0	0	0	-8.023471000000001	397.465851	-10.969264	1.007547	0	-0.302621	0	0	0	0	-2.16738	0
